<?xml version="1.0" encoding="UTF-8"?>
<svg xmlns="http://www.w3.org/2000/svg" width="256" height="256" viewBox="0 0 256 256">
<defs><radialGradient id="g" cx="0.5" cy="0.42" r="0.65">
<stop offset="0" stop-color="#ff85c0"/><stop offset="1" stop-color="#FF6FB5"/>
</radialGradient></defs>

<rect x="119.68" y="151.04" width="16.64" height="87.04"
  rx="7.68" fill="#FFF3DD" stroke="#2B1A3D" stroke-width="5.760000000000001"/>
<circle cx="128" cy="112.64" r="76.8" fill="url(#g)" stroke="#2B1A3D" stroke-width="12.8"/>
<path d="M 128 112.64 L 128.6882377438438 112.76631526323666 L 129.30825737326035 113.13696035699144 L 129.79558065492893 113.72744229807607 L 130.09303700209935 114.49828520746611 L 130.1539942816727 115.39698695661872 L 129.94510207384724 116.36063710704433 L 129.44841745685574 117.31908078812353 L 128.662809627384 118.19848851897932 L 127.6045704242122 118.92517312494988 L 126.30719185585725 119.4294826286619 L 124.82030766334518 119.6495928494692 L 123.20783231486736 119.53502567925389 L 121.54536614273766 119.04972857874084 L 119.91696814059961 118.17456742341827 L 118.41142687658326 116.9091078057236 L 117.11818382712275 115.2725883937331 L 116.12308117103206 113.30402285192935 L 115.50411691400389 111.06140285661087 L 115.32739361773729 108.62001246046556 L 115.6434427538036 106.06990196933239 L 116.48409486067118 103.5126060574784 L 117.86004662567169 101.05722457047138 L 119.759250405155 98.81601394678415 L 122.14622046609637 96.89966118126898 L 124.9623145453465 95.41242970730644 L 128.12701053401815 94.4473766855347 L 131.54015770020516 94.08184342943304 L 135.08514144348572 94.37341484722504 L 138.63286173351977 95.35652992518683 L 142.04638968868517 97.03990382357854 L 145.18613566642256 99.40489381003074 L 147.91533707533964 102.40490700286281 L 150.10565598141247 105.9659089703958 L 151.64266631355514 109.98805006514145 L 152.43100863356327 114.34838254630945 L 152.39899726209467 118.90459773363756 L 151.50247995621416 123.49967034147583 L 149.72777389407796 127.96725842931264 L 147.09353269727353 132.13767363810734 L 143.65143657287723 135.84420896410057 L 139.48564008496027 138.92959143925972 L 134.71095805150804 141.2523156607587 L 129.46981792682098 142.69261175693566 L 123.928054988393 143.15780837740854 L 118.26967288112166 142.5868675851018 L 112.69073479156843 140.95389369047788 L 107.39258804054501 138.2704513437517 L 102.57465566681334 134.5865685103365 L 98.42705132480208 129.9903459348381 L 95.12328750743703 124.60614474782074 L 92.81335102268714 118.59137620280953 L 91.61741344106093 112.13197024455586 L 91.6204279027406 105.43665074856955 L 92.86783761482087 98.73019290207786 L 95.36258633672124 92.24588047623035 L 99.06357824721869 86.2174159890393 L 103.88568522353714 80.87056352558857 L 109.70134542063845 76.41482109816909 L 116.34374000464352 73.0354260580284 L 123.61147699817087 70.88599274485841 L 131.27465453815762 70.08206620468007 L 139.08212252454874 70.69584974792473 L 146.76971366592136 72.75232808072994 L 154.06917416435587 76.22696282474837 L 160.71749235886938 81.04508488920357 L 166.46630190697005 87.08305011622414 L 171.09102552634246 94.17116286896908 L 174.3994265566534 102.09830892607016 L 176.23924883370103 110.61817643690839 L 176.5046503643871 119.4568840491586 L 175.14117239291102 128.32178084783808 L 172.14903158595388 136.9111355041837 L 167.58457778673682 144.92439386241531 L 161.55982130902257 152.0726566411342 L 154.23999999999992 158.08901319060737 L 145.83922502556666 162.73836412390767 L 136.61431312286936 165.82637548945786 L 126.85697947670229 167.2072298795103 L 116.88462700216691 166.78987491758548 L 107.0300223760352 164.54251593350935 L 97.63019458346236 160.49515589277337 L 89.01492625190885 154.74004999609468 L 81.49523020222225 147.43001268477505 L 75.3522124413519 138.77458870806 L 70.82671769011128 129.03417489104623 L 68.11013440280001 118.51225266433298 L 67.33670350603978 107.54596066702722 L 68.57762966090922 96.49529930178157 L 71.83723709692143 85.7313126847414 L 77.0513457622433 75.62363595162925" fill="none" stroke="#ffffff" stroke-width="14.591999999999999" stroke-linecap="round" opacity="0.95"/>
<circle cx="128" cy="112.64" r="76.8" fill="none" stroke="#2B1A3D" stroke-width="12.8"/>
<ellipse cx="100.352" cy="78.848" rx="23.04" ry="13.056000000000001"
  fill="#ffffff" opacity="0.75" transform="rotate(-26 100.352 78.848)"/>
<path d="M 170.24 57.34400000000001 Q 172.19840000000002 68.44160000000001 183.29600000000002 70.4
    Q 172.19840000000002 72.3584 170.24 83.456
    Q 168.2816 72.3584 157.184 70.4
    Q 168.2816 68.44160000000001 170.24 57.34400000000001 Z"
    fill="#ffffff" opacity="0.9"/>
</svg>