<?xml version="1.0" encoding="UTF-8"?>
<svg xmlns="http://www.w3.org/2000/svg" width="256" height="256" viewBox="0 0 256 256">
<defs><radialGradient id="halo" cx="0.5" cy="0.5" r="0.5">
<stop offset="0" stop-color="#FF9FCB" stop-opacity="0.55"/>
<stop offset="0.6" stop-color="#FF9FCB" stop-opacity="0.28"/>
<stop offset="1" stop-color="#FF9FCB" stop-opacity="0"/>
</radialGradient><radialGradient id="g" cx="0.5" cy="0.42" r="0.65">
<stop offset="0" stop-color="#FFEBB8"/><stop offset="1" stop-color="#F2CB6C"/>
</radialGradient></defs>

<circle cx="128" cy="128" r="125.44" fill="url(#halo)" opacity="0.5"/>
<circle cx="128" cy="142.08" r="81.92" fill="#C79A4B" stroke="#2B1A3D" stroke-width="11.52"/>
<circle cx="128" cy="122.368" r="81.92" fill="url(#g)" stroke="#2B1A3D" stroke-width="11.52"/>
<path d="M 208.2816 122.368 Q 186.50451081603404 143.66190050734147
      189.49927356470056 173.97201776581085 Q 159.1296 176.28604881929613
      141.94075354018543 201.4299421042249 Q 117.18880337699905 183.68134285633766
      87.85920000000002 191.89390505646077 Q 80.30668580696693 162.3874423489962
      52.55997289511403 149.825924338414 Q 65.74080000000001 122.36800000000001
      52.559972895114015 94.91007566158599 Q 80.30668580696693 82.3485576510038
      87.85919999999996 52.84209494353922 Q 117.18880337699905 61.05465714366233
      141.9407535401854 43.30605789577511 Q 159.1296 68.44995118070388
      189.49927356470053 70.7639822341891 Q 186.504510816034 101.07409949265848
      208.2816 122.36799999999998 Q 186.504510816034 143.66190050734147
      189.49927356470056 173.97201776581085 Z" fill="#FF9FCB" stroke="#E8749F" stroke-width="4"/>
<circle cx="128" cy="122.368" r="27.852800000000002" fill="#160B33"/>
<circle cx="128" cy="122.368" r="27.852800000000002" fill="none" stroke="#2B1A3D" stroke-width="8.064"/>
<rect x="76.4016" y="89.3768" width="18" height="7" rx="3.5"
        fill="#FF5D73" stroke="#2B1A3D" stroke-width="2"
        transform="rotate(25 85.4016 92.8768)"/><rect x="123.096" y="68.07759999999999" width="18" height="7" rx="3.5"
        fill="#5CE685" stroke="#2B1A3D" stroke-width="2"
        transform="rotate(75 132.096 71.57759999999999)"/><rect x="161.5984" y="92.6536" width="18" height="7" rx="3.5"
        fill="#64D2FF" stroke="#2B1A3D" stroke-width="2"
        transform="rotate(-20 170.5984 96.1536)"/><rect x="66.5712" y="131.9752" width="18" height="7" rx="3.5"
        fill="#FFE066" stroke="#2B1A3D" stroke-width="2"
        transform="rotate(60 75.5712 135.4752)"/><rect x="171.4288" y="135.252" width="18" height="7" rx="3.5"
        fill="#C58AFF" stroke="#2B1A3D" stroke-width="2"
        transform="rotate(15 180.4288 138.752)"/><rect x="96.0624" y="164.7432" width="18" height="7" rx="3.5"
        fill="#ffffff" stroke="#2B1A3D" stroke-width="2"
        transform="rotate(-45 105.0624 168.2432)"/><rect x="145.2144" y="163.1048" width="18" height="7" rx="3.5"
        fill="#FF5D73" stroke="#2B1A3D" stroke-width="2"
        transform="rotate(30 154.2144 166.6048)"/><rect x="119" y="172.9352" width="18" height="7" rx="3.5"
        fill="#5CE685" stroke="#2B1A3D" stroke-width="2"
        transform="rotate(80 128 176.4352)"/>
<ellipse cx="91.95519999999999" cy="81.40799999999999" rx="21.299200000000003" ry="9.8304" fill="#ffffff" opacity="0.6"
    transform="rotate(-24 91.95519999999999 81.40799999999999)"/>
</svg>