<?xml version="1.0" encoding="UTF-8"?>
<svg xmlns="http://www.w3.org/2000/svg" width="256" height="256" viewBox="0 0 256 256">
<defs><radialGradient id="face" cx="0.5" cy="0.42" r="0.65">
<stop offset="0" stop-color="#FFFFFF"/><stop offset="1" stop-color="#EDE6FA"/>
</radialGradient><radialGradient id="ring" cx="0.5" cy="0.42" r="0.65">
<stop offset="0" stop-color="#ff7d8f"/><stop offset="1" stop-color="#FF5D73"/>
</radialGradient><radialGradient id="halo" cx="0.5" cy="0.42" r="0.65">
<stop offset="0" stop-color="#FF5D7366"/><stop offset="1" stop-color="#FF5D7300"/>
</radialGradient></defs>

<circle cx="128" cy="128" r="125.44" fill="url(#halo)"/>
<circle cx="128" cy="128" r="102.4" fill="url(#ring)" stroke="#2B1A3D" stroke-width="11.52"/>
<circle cx="128" cy="128" r="79.36" fill="url(#face)" stroke="#2B1A3D" stroke-width="8.064"/>
<g transform="translate(128 128) scale(0.62) translate(-128 -128)">
<path d="M 90 70 L 90 132 a 38 38 0 0 0 76 0 L 166 70 L 196 70 L 196 132 a 68 68 0 0 1 -136 0 L 60 70 Z" fill="#FF5D73" stroke="#2B1A3D" stroke-width="7" stroke-linejoin="round"/>
<rect x="60" y="70" width="30" height="26" fill="#ffffff" stroke="#2B1A3D" stroke-width="6"/>
<rect x="166" y="70" width="30" height="26" fill="#ffffff" stroke="#2B1A3D" stroke-width="6"/></g>
<ellipse cx="97.28" cy="74.752" rx="34.816" ry="16.384"
  fill="#ffffff" opacity="0.65" transform="rotate(-24 97.28 74.752)"/>
</svg>